# xmcd
#
# Track frame offsets:
#	150
#	15931
#	27136
#	43429
#	55502
#	69402
#	87213
#	103600
#	115746
#	126881
#	140062
#	152315
#	169630
#	181852
#	204755
#	220856
#	232448
#	248677
#	261511
#	273984
#
# Disc length: 3800 seconds
#
# Revision: 1
# Processed by: cddbd v1.5.1PL0 Copyright (c) Steve Scherf et al.
# Submitted via: audiograbber 1.83.01
#
DISCID=0f0ed614
DTITLE=Nick Wernick - Die schönsten Countrysongs im Konzert
DYEAR=2004
DGENRE=Country
TTITLE0=Achy breacky heart
TTITLE1=Badmoon rising
TTITLE2=Beautifull boddy
TTITLE3=Clementine
TTITLE4=Streets of london
TTITLE5=Darling
TTITLE6=Flieg junger Adler
TTITLE7=Hallo guten morgen Deutschland
TTITLE8=Hallo Marylou
TTITLE9=A heart of gold
TTITLE10=Lone some me
TTITLE11=Lucile
TTITLE12=Lucky lips
TTITLE13=New kid in town
TTITLE14=Promisis
TTITLE15=Snowbird
TTITLE16=Some broakin hearts
TTITLE17=Der wilde wilde Westen
TTITLE18=Am Lagerfeuer der Prärie
TTITLE19=Bye bye love
EXTD=by Multisoundstudio Mover\nTel. +494179 759113\nFax. +494179 759114\nMobil
EXTD=+49171 4969136
EXTT0=
EXTT1=
EXTT2=
EXTT3=
EXTT4=
EXTT5=
EXTT6=
EXTT7=
EXTT8=
EXTT9=
EXTT10=
EXTT11=
EXTT12=
EXTT13=
EXTT14=
EXTT15=
EXTT16=
EXTT17=
EXTT18=
EXTT19=
PLAYORDER=
